# xmcd
#
# Track frame offsets:
#	300
#	12792
#	22690
#	31482
#	41838
#	51372
#	63937
#	77653
#	91283
#	102912
#
# Disc length: 1515 seconds
#
# Revision: 0
# Processed by: cddbd v1.5.1PL0 Copyright (c) Steve Scherf et al.
# Submitted via: dBpowerAMP V4.0
#
DISCID=7205e70a
DTITLE=Mickey Gilley  - Suzy Q - The Platinum Series
DYEAR=1900
DGENRE=Country
TTITLE0=Breathless
TTITLE1=I'm Gonna Put My Love In The Want Ads
TTITLE2=Is It Wrong
TTITLE3=Shake It For Mickey Gilley
TTITLE4=Suzie Q
TTITLE5=You Can Count Me Missing
TTITLE6=She's Still Got A Hold On You
TTITLE7=That Heart Belongs To Me
TTITLE8=Without You
TTITLE9=Grapevine
EXTD=
EXTT0=
EXTT1=
EXTT2=
EXTT3=
EXTT4=
EXTT5=
EXTT6=
EXTT7=
EXTT8=
EXTT9=
PLAYORDER=
